<svg height="64" viewBox="0 0 64 64" width="64" xmlns="http://www.w3.org/2000/svg"><path d="m47.05 38.19s1-5.37 1.69-11.15 1.15-11.5 1.26-13.25-.69-2.25-5.25-2.38-8.13.75-15.5 2.38-11.14 2.78-12.51 3.21-2.29 1-2.5 1.65 1 3 2.46 7.25 2.57 8.53 2.57 8.53c-1.88.19-6.5 2.32-7.66 5.63s-.5 6.5 3.88 7.75a15 15 0 0 0 11.28-1.44c3-1.56 3.22-4.25 2.65-6.59s-3.5-4.1-3.5-4.1-.53-2.47-.84-4.65-1.69-7.91-1.56-8 1.37-.63 8.62-2a49.54 49.54 0 0 1 11-1.18 48 48 0 0 1 .41 8.15 53.45 53.45 0 0 1 -.55 9.07 35.49 35.49 0 0 0 -3.9.31 5.88 5.88 0 0 0 -4.56 6c.09 3.53 1.81 4.31 4.28 5.44a11.48 11.48 0 0 0 9 .16c2.68-1.32 3.59-3.41 2.75-6.29a9.06 9.06 0 0 0 -3.52-4.5zm-20.41 1.07s-.64.34-.64.74a21.83 21.83 0 0 0 .06 3.56c.19.19.53.06.56-.5s.28-3.1.28-3.1.69.41.53 1.79 0 1.59-1.06 2.31a15.58 15.58 0 0 1 -3.34 1.62c0-.09.44-4.75.19-5a.53.53 0 0 0 -.85.06c-.09.29-.12 5.22-.28 5.25s-1.16.35-1.16.25.5-5.15.41-5.34-1.12-.12-1.12.25a45.54 45.54 0 0 1 0 5.13c-.18.06-1.28.25-1.31 0s.31-4.71.16-4.9-1-.06-1 .37 0 4.53-.13 4.53-1.06.1-1.06-.15.16-4.41.06-4.47-.9.09-.93.44.18 3.75-.13 3.72-.87-.25-.94-.5.32-3.32.16-3.5-1 0-1 .18-.19 2.57-.19 2.57a3.61 3.61 0 0 1 -.47-3.75c.94-2.22 2.66-3.35 5-4.07a9.17 9.17 0 0 1 5.59.13c1.11.31 2.61 2.38 2.61 2.38zm15.88-24.75c-.1.15.56 3.46.59 3.75s-.53 0-.81 0-.63-3.38-.63-3.5-.81 0-1.06.18.72 3.25.78 3.44-.84.06-1.09.06-.81-3.12-.81-3.12-.91.06-1.1.28.88 2.94.88 3.06-.38 0-.53 0-1-2.93-1.13-3-.47.38-.81.63.87 2.65.87 2.65a51.1 51.1 0 0 0 -6.47.91c-4.9.87-8.65 2-9.06 2.34s.16 1.6 1 5.32a61.11 61.11 0 0 1 1.22 7.81 3.66 3.66 0 0 0 -1.28-.53 4.1 4.1 0 0 0 -1.69-.1 31 31 0 0 0 -1.31-5.09c-1.31-4.41-3.37-10.34-3.37-10.34s.46-.26 3.84-1.26a109.6 109.6 0 0 1 15.5-3.68c9-1.66 12.4-.78 12.69-.57s0 .57-.07 2.1-.81 7.75-1.31 12.9a41 41 0 0 1 -1.69 8.6l-.67-.19s.22-1.65.37-3.75a52.94 52.94 0 0 0 0-9.09c-.34-3.88-.47-4.78-.59-5.41s-.85-.44-.85-.44-.18-4.09-.25-4.25-1.07.13-1.16.29zm5.68 31.78a6.21 6.21 0 0 1 -1.18.93s.4-4.06.09-4.34-1.11-.22-1.11.06 0 4.75 0 4.75-1.31.5-1.31.28a39.5 39.5 0 0 0 0-4.34c-.15-.06-1-.09-1.06.31s.25 4 0 4-1.16.25-1.09-.06a29 29 0 0 0 .25-3.78c-.13-.09-.75-.19-.82 0a30.73 30.73 0 0 1 -.31 3.62c-.19 0-1.37-.18-1.41-.4s.35-3.91.19-4-.87-.22-.94-.1 0 3.47-.28 3.47a3.28 3.28 0 0 1 -2.4-2.59c-.22-1.84.09-4.94 6-5.28a5.54 5.54 0 0 1 5.43 3.69c.92 2.25.42 3.28-.05 3.78zm-24.31-6.29a47.8 47.8 0 0 0 .11 4.79c.05.35.5-.09.69-.13a17.66 17.66 0 0 0 0-4.83c-.26-.27-.78.11-.8.17zm-7.25-8.46c.21-.29-1.23-3.63-1.37-3.82s-1.12.23-1.19.42a23.18 23.18 0 0 0 1.54 4 1.8 1.8 0 0 0 1.02-.6zm5-12.75a22.1 22.1 0 0 0 -3.58 1c-.35.18.27 2.71.42 3s1.14-.11 1.31-.27-.38-1.59-.25-1.92 1.37-.33 2-.75a.61.61 0 0 0 .14-1.06zm30.15-4.23a37.44 37.44 0 0 0 -.25 6.44c0 .18.77-.36.89-.44s.44-5.19.46-5.33-1-.89-1.06-.67zm-12 36.44c-.71 0-.59.77-.27 1a6.47 6.47 0 0 0 3.21.63 4.46 4.46 0 0 0 2.91-.75c0-.06-1.16 0-2.81-.08a10.31 10.31 0 0 1 -3.04-.8z" fill="#1d1d1b"/></svg>