<svg height="64" viewBox="0 0 64 64" width="64" xmlns="http://www.w3.org/2000/svg"><path d="m54.94 25.1c-.62-.29-1.29-.08-1.66-1.33a9.46 9.46 0 0 1 .21-3.67s1.7-3.46 2-4.62.79-2.17.08-3.34-2.5-1-6.25-1.21-8.75-.08-16-.2-7.22.09-7.87.45c-2 1.13-5.13 7.92-10.09 16.63s-7.12 12.33-7.67 13.83-.08 3.5-.12 3.92a13.2 13.2 0 0 0 .21 3.12c.25 1.17.54 2 3.16 2.92s6 1.17 14.71 1.33 16.54.59 18.13.25 1.79-2.25 2.29-3.91 3.46-8.13 4.67-11.17 5.5-11.46 5.79-12-.96-.71-1.59-1zm-40.47 8.18c3.5-5.56 8.71-14.81 10.18-17.06s2.07-3.41 2.41-3.5 9.87 0 14.87 0a90.4 90.4 0 0 1 10 .28c1.66.25 1.91.37 1.66 1.12s-3.31 6.78-4.34 9.22a34.82 34.82 0 0 1 -1.66 3.5 12.07 12.07 0 0 0 -.94-1.84c-.12 0-.68.28-.68.53s1.06 2 1 2.15-.47 1.32-.47 1.32a14.94 14.94 0 0 0 -1.1-2.29c-.15 0-.68.85-.65.94a23.22 23.22 0 0 1 1 2.25c0 .35-.13 1.1-.29 1s-1-2.34-1.12-2.34a1.27 1.27 0 0 0 -.59.62c-.07.25 1.12 2.79 1.06 3s-.53 1.69-.63 1.5a31.28 31.28 0 0 0 -1.4-2.84c-.16-.06-.88.63-.75.84a24 24 0 0 1 1.31 3.32c-.06.25-.34 1.59-.59 1.5s-1.38-3.44-1.63-3.5-1 .37-.87.78a42.89 42.89 0 0 1 1.75 4.06c0 .38-.53 1.63-.69 1.59s-1.44-3.87-1.66-4-.75.34-.71.59 2 4.44 1.65 4.84a3.32 3.32 0 0 1 -.56.6s-2.03-4.78-2.38-4.78-.87.35-.78.66 2.47 4.84 2.31 5.06a3.78 3.78 0 0 1 -.87.6s-2.41-5.35-2.56-5.35-.82.66-.78.91 2.25 4.5 2.12 4.5-1.41.25-1.56.06-2.66-5.31-2.75-5.34-.91.25-.78.65 2.68 4.44 2.25 4.38-1.38-.31-1.38-.31-1.94-3.85-2-3.85-.72.1-.66.5 1.79 3.1 1.63 3.1-1.84-.25-1.91-.41a10.33 10.33 0 0 0 -1.18-2.53c-.22 0-.94.25-.75.5a6.33 6.33 0 0 1 .75 1.75 1.24 1.24 0 0 1 -.57.06c-.12-.06-1.06-1.87-1.18-1.87a5 5 0 0 0 -.82.37s.85 1.47.5 1.47a62.46 62.46 0 0 0 -8.87-.53c-4.41.12-7 .41-7 .41-.37 0-.69 0-.69 0s.88-2.63 4.35-8.19zm31.34 11.65c-1.31 3.57-2.25 6.07-2.81 6.38s-8.1.47-13.5.22-8-.31-12.69-.63-6.31-1-6.69-1.56-.53-5.72.22-5.87a27.72 27.72 0 0 1 4.6-.41 88 88 0 0 1 14.21.53c4.72.69 6.63 1.34 8.32 1.25a9.48 9.48 0 0 0 2.22-.28 18.21 18.21 0 0 0 .75 3.22c.37.78.43 1.34.31 1.34s-7.41-.31-14.63-.37-11.68-.25-12.78-.53-1.28-.32-1.47-1.29.44-2.75.19-2.93-1-.44-1.22-.22-.59 3.4-.09 4.25.53 1.22 3.53 1.5 9.87.56 14.72.75 9.47.25 10.62.25 1.57.06 2.44-.85 2.13-3.9 3.44-6.53 4.34-8.47 4.34-8.47l.28-.15s-3 6.84-4.31 10.4zm7.19-18.93c-.29.4-8 15.44-9.16 17.87s-1.88 3.75-1.88 3.75a19.9 19.9 0 0 1 -1.18-3.62 37.52 37.52 0 0 0 4-6.78c2.09-4.47 5-10.16 5.81-11.88s1.59-3.12 1.59-3.12a7.84 7.84 0 0 0 .13 2.28c.22.65.94 1.12.69 1.5zm-3 1.86c-.25.13-2.35 5-2.66 5.57s-.63 1.45-.4 1.35a10.7 10.7 0 0 0 1.71-2.67 43.54 43.54 0 0 0 1.87-4.06c-.08-.05-.52-.21-.6-.16zm-34 17.79s2.44-.08 4.5-.29a58.79 58.79 0 0 1 6.25 0c.17 0 .23-.21 0-.31a24.32 24.32 0 0 0 -4.65-.54 56.24 56.24 0 0 0 -6.52 0 1 1 0 0 0 -.83 1c.01.36.34.3 1.17.17zm3.13 2.15c1.5-.06 4-.17 8-.42s7.6.32 8.38-.08.39-1.06.06-1.1a13.18 13.18 0 0 0 -1.86.12c-.7.06-4-.14-6.52-.1s-8.54.48-8.87.58c-1.13.36-.77 1.09.73 1.03zm-5.23-8.06a7.08 7.08 0 0 0 2.06-.21c.61-.19.88-.85.63-1a15.9 15.9 0 0 0 -1.94-.08c-.46-.09-.15-.57.17-1.07a44.35 44.35 0 0 0 2.56-3.85c.23-.67-.58-.6-1-.52s-3.19 4.56-3.58 5.62.64 1.12 1.02 1.14zm32.75-24.43c.48.17 2.19.12 2.57.31s-.57 1.84-.69 2.27.89.4 1.14.29a15.08 15.08 0 0 0 1.33-3.58c.06-.54-4.11-.67-4.54-.52s-.29 1.06.19 1.23zm-20.27 7.23c.71.06 3 .29 8.94.44s7.71.52 8.33.06 2.9-5.21 3.09-5.77-.15-1.09-1.94-1.4a91.1 91.1 0 0 0 -10.08-.69c-3.4 0-5.55.18-5.88.4s-3.29 5.1-3.58 5.69.41 1.21 1.12 1.27zm.75-1.77a37.45 37.45 0 0 1 2.81-4.27c.28-.09 6.44.1 9.59.18s5.5.57 5.64.78a16.73 16.73 0 0 1 -1.6 3.64c-.35.56-.77.94-1 .94s-6.31-.36-9.85-.5a52.91 52.91 0 0 1 -5.44-.27c-.28-.15-.28-.27-.15-.5zm4.13.06c.41-.08.43-.81.5-1s-1.65-.14-1.82-.17.23-.62.63-.95-.5-.67-1.06-.4a6.18 6.18 0 0 0 -1.34 2.42 21.61 21.61 0 0 0 3.09.1z" fill="#1d1d1b"/></svg>